<?xml version="1.0" encoding="UTF-8" standalone="no"?>
<svg width="113px" height="113px" viewBox="0 0 113 113" version="1.1" xmlns="http://www.w3.org/2000/svg" xmlns:xlink="http://www.w3.org/1999/xlink">
    <!-- Generator: Sketch 44.1 (41455) - http://www.bohemiancoding.com/sketch -->
    <title>Group 10</title>
    <desc>Created with Sketch.</desc>
    <defs></defs>
    <g id="Website" stroke="none" stroke-width="1" fill="none" fill-rule="evenodd">
        <g id="Artboard-Copy-4" transform="translate(-1862.000000, -2596.000000)">
            <g id="Group-12" transform="translate(1562.000000, 2596.000000)">
                <g id="Group-10" transform="translate(300.000000, 0.000000)">
                    <circle id="Oval-2-Copy-2" fill="#008ED6" cx="56.5" cy="56.5" r="56.5"></circle>
                    <g id="iconmonstr-linkedin-1" transform="translate(40.000000, 36.000000)" fill-rule="nonzero" fill="#FFFFFF">
                        <path d="M7.47,3.80434783 C7.47,5.90586957 5.805,7.60869565 3.75,7.60869565 C1.695,7.60869565 0.03,5.90586957 0.03,3.80434783 C0.03,1.70434783 1.695,0 3.75,0 C5.805,0 7.47,1.70434783 7.47,3.80434783 Z M7.5,10.6521739 L0,10.6521739 L0,35 L7.5,35 L7.5,10.6521739 Z M19.473,10.6521739 L12.021,10.6521739 L12.021,35 L19.4745,35 L19.4745,22.218913 C19.4745,15.1123913 28.518,14.531087 28.518,22.218913 L28.518,35 L36,35 L36,19.5832609 C36,7.59195652 22.617,8.02869565 19.473,13.9315217 L19.473,10.6521739 Z" id="Shape"></path>
                    </g>
                </g>
            </g>
        </g>
    </g>
</svg>