<?xml version="1.0" encoding="UTF-8" standalone="no"?>
<svg width="88px" height="102px" viewBox="0 0 88 102" version="1.1" xmlns="http://www.w3.org/2000/svg" xmlns:xlink="http://www.w3.org/1999/xlink">
    <!-- Generator: Sketch 44.1 (41455) - http://www.bohemiancoding.com/sketch -->
    <title>Group 2 Copy</title>
    <desc>Created with Sketch.</desc>
    <defs></defs>
    <g id="Website" stroke="none" stroke-width="1" fill="none" fill-rule="evenodd">
        <g id="Artboard-Copy-4" transform="translate(-159.000000, -3609.000000)">
            <g id="Group-13" transform="translate(0.000000, 3558.000000)">
                <g id="Group-2-Copy" transform="translate(159.000000, 51.000000)">
                    <rect id="Rectangle-Copy-4" fill="#025781" x="0" y="0" width="88" height="102" rx="16"></rect>
                    <rect id="Rectangle-Copy-7" fill="#008ED6" x="0" y="0" width="88" height="89" rx="16"></rect>
                    <path d="M29.122,16.648 C38.032,16.648 42.406,21.589 42.406,30.661 L42.406,38.032 C42.406,47.104 38.032,52.045 29.122,52.045 L24.91,52.045 L24.91,73.348 L16,73.348 L16,16.648 L29.122,16.648 Z M29.122,24.748 L24.91,24.748 L24.91,43.945 L29.122,43.945 C31.957,43.945 33.496,42.649 33.496,38.599 L33.496,30.094 C33.496,26.044 31.957,24.748 29.122,24.748 Z M45.808,30.256 C45.808,46.456 63.223,48.643 63.223,60.307 C63.223,64.357 61.441,65.815 58.606,65.815 C55.771,65.815 53.989,64.357 53.989,60.307 L53.989,56.257 L45.565,56.257 L45.565,59.74 C45.565,68.812 50.101,73.996 58.849,73.996 C67.597,73.996 72.133,68.812 72.133,59.74 C72.133,43.54 54.718,41.353 54.718,29.689 C54.718,25.639 56.338,24.1 59.173,24.1 C62.008,24.1 63.628,25.639 63.628,29.689 L63.628,32.038 L72.052,32.038 L72.052,30.256 C72.052,21.184 67.597,16 58.93,16 C50.263,16 45.808,21.184 45.808,30.256 Z" id="PS" fill="#FFFFFF"></path>
                </g>
            </g>
        </g>
    </g>
</svg>