<?xml version="1.0" encoding="UTF-8" standalone="no"?>
<svg width="113px" height="113px" viewBox="0 0 113 113" version="1.1" xmlns="http://www.w3.org/2000/svg" xmlns:xlink="http://www.w3.org/1999/xlink">
    <!-- Generator: Sketch 44.1 (41455) - http://www.bohemiancoding.com/sketch -->
    <title>Group 8</title>
    <desc>Created with Sketch.</desc>
    <defs></defs>
    <g id="Website" stroke="none" stroke-width="1" fill="none" fill-rule="evenodd">
        <g id="Artboard-Copy-4" transform="translate(-1712.000000, -2596.000000)">
            <g id="Group-12" transform="translate(1562.000000, 2596.000000)">
                <g id="Group-8" transform="translate(150.000000, 0.000000)">
                    <circle id="Oval-2-Copy" fill="#008ED6" cx="56.5" cy="56.5" r="56.5"></circle>
                    <g id="iconmonstr-twitter-1" transform="translate(31.000000, 36.000000)" fill-rule="nonzero" fill="#FFFFFF">
                        <path d="M50.4172046,4.99035222 C48.5837136,5.80719784 46.613178,6.35731836 44.54505,6.60528935 C46.6567831,5.33626134 48.2784778,3.32540414 49.040529,0.929045824 C47.0658406,2.10430329 44.8772794,2.95865713 42.5475208,3.41917468 C40.6849598,1.42498781 38.0250482,0.178881481 35.084818,0.178881481 C28.4838352,0.178881481 23.6332861,6.35940215 25.1241655,12.7753911 C16.6294752,12.3482141 9.09617366,8.26398606 4.05251617,2.05637613 C1.37391668,6.66780304 2.66338201,12.7003746 7.21492471,15.7552105 C5.54131914,15.701032 3.96322952,15.2405144 2.58655397,14.471596 C2.47442655,19.2247206 5.86939567,23.6715281 10.7863907,24.6613283 C9.34742214,25.0530808 7.77140895,25.1447676 6.16840212,24.8363667 C7.46824963,28.9122596 11.2432061,31.8774925 15.7199972,31.9608441 C11.4217794,35.342835 6.00644029,36.8535827 0.582795432,36.2117754 C5.10734449,39.1228298 10.4832314,40.8211185 16.2557171,40.8211185 C35.2384741,40.8211185 45.9632543,24.7321772 45.3154069,10.3019325 C47.3129362,8.85369858 49.0467583,7.04705279 50.4172046,4.99035222 Z" id="Shape"></path>
                    </g>
                </g>
            </g>
        </g>
    </g>
</svg>